<?xml version="1.0" encoding="utf-8"?>
<svg viewBox="83.33628845214844 261.19854736328125 808.4000244140625 363.39996337890625" width="808.4000244140625" height="363.39996337890625" xmlns="http://www.w3.org/2000/svg" xmlns:xlink="http://www.w3.org/1999/xlink"><clipPath id="XMLID_75_">
			<use style="overflow:visible;" xlink:href="#XMLID_72_"/>
		</clipPath><defs><path d="M 0 0 H 1400 V 980 H 0 V 0 Z" id="XMLID_72_"/></defs><g id="XMLID_60_" class="st3" transform="matrix(1, 0, 0, 1, -136.46374511718756, -293.8014831542969)" style="clip-path: url('#XMLID_75_');">
			<path d="M 1007.7000122070312 797.0999755859375 L 240.39999389648438 797.0999755859375 L 283.79998779296875 699.7999877929688 L 1007.7000122070312 699.7999877929688 Z" id="XMLID_34_" class="st11" style="fill: rgb(224, 59, 59);"/>
			<path d="M 1008 719 L 1008 700 L 283.79998779296875 700 L 275.29998779296875 719 Z" id="XMLID_62_" class="st12" style="fill: rgb(239, 84, 84);"/>
			<path d="M 219.800003 797.099976 H 1028.200027 V 854.099976 H 219.800003 V 797.099976 Z" id="XMLID_35_" class="st13" style="fill: rgb(198, 50, 50);"/>
			<path d="M 219.800003 839.099976 H 1028.200027 V 854.099976 H 219.800003 V 839.099976 Z" id="XMLID_57_" class="st14" style="fill: rgb(165, 47, 47);"/>
			<path d="M 932.2999877929688 699.7999877929688 L 419.8999938964844 699.7999877929688 L 543.5 555.4000244140625 L 833.2000122070312 555.4000244140625 Z" id="XMLID_37_" class="st11" style="fill: rgb(224, 59, 59);"/>
			<path d="M 839.5 565 L 833.2000122070312 555 L 543.5 555 L 535.7000122070312 565 Z" id="XMLID_65_" class="st12" style="fill: rgb(239, 84, 84);"/>
			<path d="M 898.9000244140625 699.7999877929688 L 452.1000061035156 699.7999877929688 L 557.9000244140625 578.0999755859375 L 819.0999755859375 578.0999755859375 Z" id="XMLID_41_" class="st10" style="fill: rgb(37, 40, 40);"/>
			<path d="M 557.9000244140625 578 L 518 624 L 849.2000122070312 624 L 819.0999755859375 578 Z" id="XMLID_7_" class="st15" style="fill: rgb(57, 61, 61);"/>
			<path d="M 479.300003 843.599976 A 74.800003 74.800003 0 0 1 404.5 918.399979 A 74.800003 74.800003 0 0 1 329.699997 843.599976 A 74.800003 74.800003 0 0 1 404.5 768.799973 A 74.800003 74.800003 0 0 1 479.300003 843.599976 Z" id="XMLID_38_" class="st10" style="fill: rgb(37, 40, 40);"/>
			<path d="M 452.099998 843.599976 A 47.599998 47.599998 0 0 1 404.5 891.199974 A 47.599998 47.599998 0 0 1 356.900002 843.599976 A 47.599998 47.599998 0 0 1 404.5 795.999977 A 47.599998 47.599998 0 0 1 452.099998 843.599976 Z" id="XMLID_39_" class="st15" style="fill: rgb(57, 61, 61);"/>
			<path d="M 430.700001 843.599976 A 26.200001 26.200001 0 0 1 404.5 869.799976 A 26.200001 26.200001 0 0 1 378.299999 843.599976 A 26.200001 26.200001 0 0 1 404.5 817.399975 A 26.200001 26.200001 0 0 1 430.700001 843.599976 Z" id="XMLID_43_" class="st16" style="fill: rgb(239, 238, 237);"/>
			<path d="M 932.599991 843.599976 A 74.800003 74.800003 0 0 1 857.799988 918.399979 A 74.800003 74.800003 0 0 1 782.999985 843.599976 A 74.800003 74.800003 0 0 1 857.799988 768.799973 A 74.800003 74.800003 0 0 1 932.599991 843.599976 Z" id="XMLID_42_" class="st10" style="fill: rgb(37, 40, 40);"/>
			<path d="M 905.399986 843.599976 A 47.599998 47.599998 0 0 1 857.799988 891.199974 A 47.599998 47.599998 0 0 1 810.199989 843.599976 A 47.599998 47.599998 0 0 1 857.799988 795.999977 A 47.599998 47.599998 0 0 1 905.399986 843.599976 Z" id="XMLID_54_" class="st15" style="fill: rgb(57, 61, 61);"/>
			<path d="M 883.999989 843.599976 A 26.200001 26.200001 0 0 1 857.799988 869.799976 A 26.200001 26.200001 0 0 1 831.599987 843.599976 A 26.200001 26.200001 0 0 1 857.799988 817.399975 A 26.200001 26.200001 0 0 1 883.999989 843.599976 Z" id="XMLID_52_" class="st16" style="fill: rgb(239, 238, 237);"/>
			<path d="M 252.89999389648438 769 L 304 769 L 304 730 L 270.3999938964844 730 Z" id="XMLID_50_" class="st16" style="fill: rgb(239, 238, 237);"/>
			<path d="M 304 729.599976 H 323.6 V 768.799976 H 304 V 729.599976 Z" id="XMLID_40_" class="st17" style="fill: rgb(255, 163, 0);"/>
			<path d="M 975 730 H 1008 V 769 H 975 V 730 Z" id="XMLID_53_" class="st16" style="fill: rgb(239, 238, 237);"/>
			<path d="M 955.299988 729.599976 H 974.899988 V 768.799976 H 955.299988 V 729.599976 Z" id="XMLID_49_" class="st17" style="fill: rgb(255, 163, 0);"/>
			<path d="M 632.799988 567.200012 H 655.399988 V 699.700012 H 632.799988 V 567.200012 Z" id="XMLID_51_" class="st11" style="fill: rgb(224, 59, 59);"/>
			<path d="M 796.099976 567.200012 H 818.699976 V 699.700012 H 796.099976 V 567.200012 Z" id="XMLID_56_" class="st11" style="fill: rgb(224, 59, 59);"/>
			<path d="M 580.5 729.599976 H 632.799999 V 743.999975 H 580.5 V 729.599976 Z" id="XMLID_55_" class="st13" style="fill: rgb(198, 50, 50);"/>
			<path d="M 743.799988 729.599976 H 796.099987 V 743.999975 H 743.799988 V 729.599976 Z" id="XMLID_58_" class="st13" style="fill: rgb(198, 50, 50);"/>
			<path d="M 474.100006 646.900024 H 485.900006 V 691.600025 H 474.100006 V 646.900024 Z" id="XMLID_59_" class="st12" style="fill: rgb(239, 84, 84);"/>
		</g></svg>