<?xml version="1.0" encoding="utf-8"?>
<!-- Generator: Adobe Illustrator 19.0.0, SVG Export Plug-In . SVG Version: 6.00 Build 0)  -->
<svg version="1.1" id="phone" xmlns="http://www.w3.org/2000/svg" xmlns:xlink="http://www.w3.org/1999/xlink" x="0px" y="0px"
	 viewBox="0 0 2400 2400" style="enable-background:new 0 0 2400 2400;" xml:space="preserve">
<style type="text/css">
	.st0{fill:#4D4D4F;}
	.st1{fill:#414042;}
	.st2{fill:#C4161C;}
	.st3{fill:#ED1C24;}
	.st4{fill:#D71920;}
	.st5{fill:#EF4130;}
	.st6{fill:#BCBEC0;}
	.st7{fill:#E6E7E8;}
	.st8{fill:#58595B;}
	.st9{fill:#A7A9AC;}
	.st10{fill:#808285;}
</style>
<g>
	<g>
		<path class="st0" d="M150.8,1682c-7.8,0-15-5.2-17.2-13.1l-29.9-106.1c-2.2-7.8,1.1-16.1,8-20.2c4.1-2.4,8.8-3.1,13.2-2.1
			c0.3-0.4,0.5-0.8,0.8-1.2c2.5-3.3,6-5.5,9.8-6.4c-0.3-3.1,0.2-6.3,1.5-9.2c3.6-7.9,12.4-12.1,20.8-9.9l3.2,0.8
			c-1-3.7-0.8-7.7,0.8-11.5c3.4-8.2,12.2-12.6,20.8-10.5l9.1,2.2c-6.3-5.3-8.1-14.4-4.3-21.8c4-7.8,13-11.5,21.3-8.9l14.5,4.5
			l-1.2-1.1c-6.4-5.8-7.8-15.5-3.1-22.8c3.5-5.6,9.7-8.7,16-8.3c-6.1-6-7.1-15.5-2.3-22.7c5-7.4,14.7-10,22.7-6.1l14.7,7.2
			l-18.8-21.6c-5.9-6.8-5.9-16.9,0.1-23.7c6-6.7,16.1-8,23.5-2.9l1.1,0.7c-1-5.2,0.3-10.6,3.9-14.9c2.9-3.5,6.9-5.6,11.2-6.2
			c-0.3-3.9,0.6-7.9,2.9-11.3c4.7-7.1,13.7-9.9,21.6-6.8l11.6,4.6l-15.5-15.5c-6.1-6-7-15.5-2.2-22.6c4.8-7.1,13.9-9.8,21.8-6.5
			l2.5,1.1c-5.3-6.1-5.8-15.1-1.2-21.9c3.4-4.9,8.9-7.7,14.5-7.7l-2.5-2.3c-6.6-6.2-7.5-16.5-2.1-23.7c5.4-7.3,15.5-9.3,23.4-4.8
			l0.2,0.1c0.4-2.7,1.4-5.3,3.1-7.7c3.3-4.6,8.4-7.3,13.8-7.6l-3.9-3.7c-6.6-6.3-7.3-16.6-1.7-23.8c5.6-7.2,15.7-9.1,23.5-4.3
			c0.2,0.1,17.2,10.4,36.7,18.6c26.4,11.1,38.2,10.2,40.5,8.9c0.6-0.9,4.4-7,3.9-30.7c-0.3-18-2.9-39.6-5.1-58.5
			c-3.1-26-4.9-42.5-3.3-53.4c2.5-16.7,16.7-32.5,43.7-48.3c17.3-10.2,33.9-16.9,34.6-17.1c9.2-3.7,19.6,0.8,23.3,10
			c3.7,9.2-0.8,19.6-9.9,23.3c-0.3,0.1-15.1,6.1-29.9,14.9c-24.3,14.3-26.2,22.5-26.2,22.6c-1,6.8,1.3,26.5,3.4,44
			c6.6,56.1,10,97.4-7.7,117.3c-9.6,10.8-23.4,13.4-37,12.5l19.7,19c6.4,6.1,7.3,16,2.2,23.2c-3.3,4.6-8.3,7.2-13.7,7.5
			c3.7,6.1,3.4,14-1,20c-3.4,4.5-8.6,7-13.9,7.1c0.8,4.5-0.1,9.3-3,13.4c-4.5,6.5-12.7,9.1-20,6.8c0.5,4-0.4,8.2-2.7,11.8
			c-4.7,7.3-14,10.2-22,6.8l-12-5l12.4,12.4c6,6,7,15.4,2.3,22.5c-4.7,7.1-13.7,9.9-21.6,6.8l-11.7-4.6l4.1,4.1
			c6.3,6.3,7,16.4,1.6,23.5c-4.8,6.3-13,8.6-20.2,6l8.3,10.2c5.6,6.9,5.4,16.9-0.7,23.4c-4.4,4.7-10.8,6.7-16.8,5.4
			c1,4.9-0.1,10.2-3.3,14.5c-3.8,5-9.8,7.5-15.7,6.9c0.7,4.2-0.1,8.6-2.5,12.4c-4.6,7.4-13.9,10.4-22,7.1l-2.7-1.1
			c1,4.3,0.4,8.9-1.9,12.9c-4.2,7.3-12.9,10.7-20.9,8.2l-0.9-0.3c1.6,4.4,1.5,9.4-0.6,13.9c-2.9,6-8.7,9.8-15.1,10.2
			c1.9,4.4,2,9.4,0,14.1c-3.5,8.2-12.4,12.6-21,10.3l-6.4-1.6c4.2,5.4,5.1,12.9,1.8,19.3c-4.2,8-13.7,11.7-22.2,8.5l-38-14.2
			l23.5,33.5c5.3,7.5,4,17.9-3,23.9c-7,6-17.4,5.7-24.1-0.7l-28.2-27.2l12,42.5c2.7,9.5-2.9,19.4-12.4,22.1
			C154,1681.8,152.4,1682,150.8,1682z"/>
		<path d="M514.2,1071.4c-9.4,0-18.6-4.4-24.4-12.6c-9.5-13.5-6.3-32.1,7.1-41.6c22.1-15.6,49.1-26.5,50.3-27
			c15.3-6.1,32.7,1.3,38.8,16.6c6.1,15.3-1.3,32.6-16.6,38.8c-0.3,0.1-21.8,8.9-38,20.3C526.1,1069.6,520.1,1071.4,514.2,1071.4z"/>
		<path class="st1" d="M355.7,1709.8c-8.2,0-15.5-5.7-17.4-13.8l-8.1-34.2l-6.8,33.6c-1.7,8.6-9.5,14.6-18.2,14.3
			c-8.8-0.3-16-6.9-17.1-15.6l-0.2-1.6c-3.3,4.8-8.9,7.8-15.1,7.6c-4.9-0.1-9.4-2.2-12.6-5.6l0,0.2c-1.4,8.8-9.2,15.3-18.1,15
			c-7.8-0.2-14.4-5.3-16.6-12.5c-2.9,1.9-6.3,3-10,2.9c-8.9-0.1-16.3-6.7-17.5-15.5l-0.2-1.5c-2.8,7-9.8,11.6-17.6,11.2
			c-8.5-0.5-15.4-6.9-16.7-15.2c-3.5,3.7-8.6,5.9-14.1,5.6c-8.8-0.5-16-7.5-16.7-16.3l-1.6-17.5c-3.9,4.1-9.6,6.3-15.5,5.4
			c-8.8-1.2-15.4-8.8-15.4-17.7v-79.4c0-9.9,8-17.9,17.9-17.9c4.3,0,8.3,1.5,11.4,4.1c3.6-2.9,8.2-4.5,13.1-4
			c6.5,0.6,12,4.7,14.6,10.4c3-6.7,10-11,17.6-10.5c7.5,0.5,13.7,5.7,15.8,12.6c2.9-1.9,6.4-3,10.1-2.9c8.8,0.2,16.2,6.8,17.4,15.5
			l1.1,8.2c3.3-2.9,7.6-4.6,12.3-4.5c4.6,0.1,8.9,2,12,5.1l0.6-3.5c1.4-8.8,9.2-15.2,18.2-15c4.9,0.1,9.3,2.2,12.5,5.6
			c3.1-5.8,9.2-9.5,16-9.4c8.9,0.1,16.4,6.8,17.5,15.6l1.7,13.3l1.4-6.9c1.7-8.2,8.9-14.2,17.3-14.3c8.4-0.2,15.8,5.6,17.7,13.8
			l4.2,17.9l2.8-21.8c1.1-8.8,8.6-15.5,17.5-15.6c0.1,0,0.2,0,0.3,0c8.8,0,16.3,6.4,17.7,15l1.2,7.7l1.8-11.4
			c1.4-8.7,8.9-15.1,17.7-15.1c0.1,0,0.2,0,0.3,0c8.9,0.1,16.4,6.8,17.5,15.7l1.2,9.3l3.8-20.1c1.6-8.6,9.3-14.8,18.1-14.6
			c7,0.2,13,4.4,15.8,10.5c2.8-6.3,9.1-10.5,16.3-10.5c0,0,0,0,0,0c9.1,0,16.7,6.8,17.8,15.9l1,8.4l2.1-10
			c1.8-8.6,9.6-14.5,18.4-14.2c5.4,0.3,10.2,2.9,13.3,7l0.7-5c1.3-8.8,8.8-15.3,17.7-15.3c0,0,0,0,0,0c8.9,0,16.4,6.5,17.7,15.2
			l1.9,12.5l3-20.2c1.3-8.7,8.8-15.2,17.7-15.3c0,0,0,0,0.1,0c8.8,0,16.3,6.4,17.7,15.2l0.8,5.4l4.1-26.5c1.4-9,9.3-15.5,18.3-15.2
			c9.1,0.3,16.5,7.4,17.2,16.4l2.4,28.1c5.6-8.6,11.9-17,18.9-25c28.2-32.2,62.5-52.1,89.5-52.1c9.9,0,17.9,8,17.9,17.9
			c0,9.9-8,17.9-17.9,17.9c-31.6,0-101.1,62.5-101.1,129.3c0,9.6-7.6,17.5-17.2,17.9c-4.5,0.2-8.8-1.3-12.1-4l-2.3,15
			c-1.3,8.7-8.9,15.2-17.7,15.2c0,0,0,0,0,0c-8.8,0-16.3-6.4-17.7-15.2l-0.6-3.5l-3.3,22c-1.3,8.8-8.8,15.2-17.7,15.3c0,0,0,0,0,0
			c-8.9,0-16.4-6.5-17.7-15.2l-1.8-11.7l-1.7,11.7c-1.3,8.9-9,15.4-18,15.3c-9-0.1-16.5-6.9-17.5-15.9l-0.9-8.3l-2.1,9.9
			c-1.8,8.6-9.6,14.6-18.4,14.2c-3.7-0.2-7-1.4-9.8-3.5l-0.4,3c-1,9-8.6,15.8-17.7,15.8c-9,0.1-16.7-6.6-17.9-15.6l-2.7-21l-4.1,22
			c-1.6,8.7-9.3,14.9-18.1,14.6c-8-0.2-14.7-5.7-16.7-13.2c-2.1,7.7-9.1,13.2-17.2,13.2c0,0,0,0,0,0c-8.1,0-15.2-5.5-17.3-13.2
			c-2,7.4-8.5,12.8-16.3,13.2C356.3,1709.8,356,1709.8,355.7,1709.8z"/>
		<path d="M711.9,1536.5c-8.9,0-17.7-4-23.6-11.5c-10.1-13-7.8-31.8,5.3-41.9c16.6-12.9,42.1-28.3,69-28.3
			c16.5,0,29.8,13.4,29.8,29.8s-13.4,29.8-29.8,29.8c-5.6,0-17.4,4.1-32.4,15.7C724.7,1534.5,718.3,1536.5,711.9,1536.5z"/>
	</g>
	<g>
		<path class="st2" d="M2198.9,694.6c-64.6-53.4-397.8-189.7-536.5-213.6s-262.7-19.4-262.7-19.4s-124-4.5-262.7,19.4
			c-138.7,23.9-472,160.1-536.5,213.6c-62.1,51.3-107.4,155.9-100.4,227.2c4,40.9,22.7,67.7,22.3,67l46.2,80
			c17.6,30.6,113.5-8.6,242.1-82.8c128.6-74.2,210.4-137.7,192.8-168.2l-19.6-33.9c-25.9-44.9,13.7-72.5,39.4-72.5
			c25.7,0,232.3-16.8,376.6-16.8c144.3,0,350.9,16.8,376.6,16.8c25.7,0,65.3,27.5,39.4,72.4l-19.6,33.9
			c-17.6,30.6,64.2,94,192.8,168.2c128.6,74.2,224.4,113.4,242.1,82.8l46.2-80c-0.5,0.7,18.3-26.1,22.3-67
			C2306.3,850.5,2261,745.9,2198.9,694.6z"/>
		<g>
			<g>
				<path class="st3" d="M2007.5,953.5c-101.3-58.5-176.3-110.9-204.2-148.5l-39.3,68.1c-17.6,30.6,64.2,94,192.8,168.2
					c128.6,74.2,224.4,113.4,242.1,82.8l39.3-68.1C2191.7,1050.8,2108.7,1012,2007.5,953.5z"/>
			</g>
		</g>
		<path class="st2" d="M1968.2,1021.5C1867,963,1791.9,910.6,1764.1,873l-15.7,27.2c-17.6,30.6,56.3,107.7,184.9,181.9
			c128.6,74.2,232.3,99.7,250,69.1l15.7-27.2C2152.4,1118.7,2069.5,1079.9,1968.2,1021.5z"/>
		<g>
			<g>
				<path class="st3" d="M1035.2,873.1l-39.3-68.1c-27.8,37.6-102.9,90-204.2,148.5c-101.3,58.5-184.2,97.3-230.7,102.6l39.3,68.1
					c17.6,30.6,113.5-8.6,242.1-82.8C971,967.2,1052.9,903.7,1035.2,873.1z"/>
			</g>
		</g>
		<path class="st2" d="M831,1021.5C932.2,963,1007.3,910.6,1035.1,873l15.7,27.2c17.6,30.6-56.3,107.7-184.9,181.9
			c-128.6,74.2-232.3,99.7-250,69.1l-15.7-27.2C646.8,1118.7,729.7,1079.9,831,1021.5z"/>
	</g>
	<g>
		<path class="st4" d="M1738.9,663.8c0,163.8,6.8,455,111.5,617.4c88,136.6,210.4,166,210.4,166v-29.8c0,0-70-10.8-165.6-142.2
			c-117.2-160.9-145.9-397.4-145.9-611.4H1738.9z"/>
		<path class="st4" d="M1060.4,663.8c0,163.8-6.8,455-111.5,617.4c-88,136.6-210.4,166-210.4,166v-29.8c0,0,70-10.8,165.6-142.2
			c117.2-160.9,145.9-397.4,145.9-611.4H1060.4z"/>
		<path class="st3" d="M738.5,1447.2c0,0,122.3-29.5,210.4-166c104.7-162.4,111.5-453.6,111.5-617.4c0-10.4,8.4-18.8,18.8-18.8h72.7
			c10.4,0,18.8,8.4,18.8,18.8v132.6h458V663.8c0-10.4,8.4-18.8,18.8-18.8h72.7c10.4,0,18.8,8.4,18.8,18.8
			c0,163.8,6.8,455,111.5,617.4c88,136.6,210.4,166,210.4,166H738.5z"/>
		<path class="st4" d="M2060.8,1658.5c0,23.1-18.7,41.9-41.9,41.9l-1238.6,0c-23.1,0-41.9-18.7-41.9-41.9v-211.2h1322.3V1658.5z"/>
		<path class="st3" d="M738.5,1541.5v117c0,23.1,18.7,41.9,41.9,41.9l1238.6,0c23.1,0,41.9-18.7,41.9-41.9v-117H738.5z"/>
		<g>
			<g>
				<path class="st5" d="M1739.9,758.7c-37.2-26.3-74.4-47.5-111.3-64.1v101.8h-458v-87.1c-40.9,22.4-78.6,50-112.3,81.4
					c-6,161.3-28.3,364.5-109.5,490.4c-13.9,21.6-28.7,40.5-43.7,57c228-8.4,589.8-42,887.7-185.7
					C1754.1,1028.1,1743,878.5,1739.9,758.7z"/>
			</g>
		</g>
		<g>
			<path class="st6" d="M796.7,1750.6h196c7.1,0,12.9-5.8,12.9-12.9v-37.4H783.8v37.4C783.8,1744.9,789.5,1750.6,796.7,1750.6z"/>
			<path class="st6" d="M1806.6,1750.6h196c7.1,0,12.9-5.8,12.9-12.9v-37.4h-221.7v37.4C1793.7,1744.9,1799.5,1750.6,1806.6,1750.6z
				"/>
		</g>
		<rect x="1265.8" y="1587.8" class="st7" width="267.6" height="52.3"/>
	</g>
	<g>
		<ellipse class="st8" cx="1396.1" cy="1026.1" rx="310.3" ry="284.6"/>
		<path class="st1" d="M1085.9,1026.1c0,157.2,138.9,284.6,310.3,284.6c171.4,0,310.3-127.4,310.3-284.6l1.5,19.4
			c0,157.2-140.4,284.6-311.8,284.6c-171.4,0-311.8-127.4-311.8-284.6L1085.9,1026.1z"/>
		<ellipse class="st6" cx="1396.1" cy="1016.5" rx="178.7" ry="154.3"/>
		<g>
			<g>
				<ellipse cx="1452.8" cy="795.9" rx="48" ry="34.8"/>
				<path class="st1" d="M1500.8,795.9c0-19.2-21.5-34.8-48-34.8c-26.5,0-48,15.6-48,34.8c0,3.7,0.8,7.3,2.3,10.7c0-0.2,0-0.4,0-0.6
					c0-18.3,20.5-33.1,45.7-33.1c25.3,0,45.7,14.8,45.7,33.1c0,0.2,0,0.4,0,0.6C1500,803.2,1500.8,799.6,1500.8,795.9z"/>
			</g>
			<g>
				<ellipse cx="1338" cy="801.9" rx="48" ry="34.8"/>
				<path class="st1" d="M1386,801.9c0-19.2-21.5-34.8-48-34.8c-26.5,0-48,15.6-48,34.8c0,3.7,0.8,7.3,2.3,10.7c0-0.2,0-0.4,0-0.6
					c0-18.3,20.5-33.1,45.7-33.1c25.3,0,45.7,14.8,45.7,33.1c0,0.2,0,0.4,0,0.6C1385.2,809.3,1386,805.7,1386,801.9z"/>
			</g>
			<g>
				<ellipse cx="1239.8" cy="855.7" rx="48" ry="34.8"/>
				<path class="st1" d="M1287.8,855.7c0-19.2-21.5-34.8-48-34.8c-26.5,0-48,15.6-48,34.8c0,3.7,0.8,7.3,2.3,10.7c0-0.2,0-0.4,0-0.6
					c0-18.3,20.5-33.1,45.7-33.1c25.3,0,45.7,14.8,45.7,33.1c0,0.2,0,0.4,0,0.6C1287,863,1287.8,859.4,1287.8,855.7z"/>
			</g>
			<g>
				<ellipse cx="1171.4" cy="935.9" rx="48" ry="34.8"/>
				<path class="st1" d="M1219.4,935.9c0-19.2-21.5-34.8-48-34.8c-26.5,0-48,15.6-48,34.8c0,3.7,0.8,7.3,2.3,10.7c0-0.2,0-0.4,0-0.6
					c0-18.3,20.5-33.1,45.7-33.1c25.3,0,45.7,14.8,45.7,33.1c0,0.2,0,0.4,0,0.6C1218.6,943.2,1219.4,939.6,1219.4,935.9z"/>
			</g>
			<g>
				<ellipse cx="1154.2" cy="1032.3" rx="48" ry="34.8"/>
				<path class="st1" d="M1202.2,1032.3c0-19.2-21.5-34.8-48-34.8c-26.5,0-48,15.6-48,34.8c0,3.7,0.8,7.3,2.3,10.7
					c0-0.2,0-0.4,0-0.6c0-18.3,20.5-33.1,45.7-33.1c25.3,0,45.7,14.8,45.7,33.1c0,0.2,0,0.4,0,0.6
					C1201.4,1039.7,1202.2,1036.1,1202.2,1032.3z"/>
			</g>
			<g>
				<ellipse cx="1265.8" cy="1201.1" rx="50.8" ry="36.8"/>
				<path class="st1" d="M1316.6,1201.1c0-20.3-22.8-36.8-50.8-36.8c-28.1,0-50.8,16.5-50.8,36.8c0,3.9,0.9,7.8,2.5,11.3
					c0-0.2,0-0.4,0-0.6c0-19.3,21.7-35,48.4-35c26.7,0,48.4,15.7,48.4,35c0,0.2,0,0.4,0,0.6
					C1315.7,1208.9,1316.6,1205.1,1316.6,1201.1z"/>
			</g>
			<g>
				<ellipse cx="1184.9" cy="1127.6" rx="50.8" ry="36.8"/>
				<path class="st1" d="M1235.7,1127.6c0-20.3-22.8-36.8-50.8-36.8c-28.1,0-50.8,16.5-50.8,36.8c0,3.9,0.9,7.8,2.5,11.3
					c0-0.2,0-0.4,0-0.6c0-19.3,21.7-35,48.4-35c26.7,0,48.4,15.7,48.4,35c0,0.2,0,0.4,0,0.6
					C1234.8,1135.4,1235.7,1131.6,1235.7,1127.6z"/>
			</g>
			<g>
				<ellipse cx="1389.6" cy="1237.4" rx="50.9" ry="36.8"/>
				<path class="st1" d="M1440.5,1237.4c0-20.3-22.8-36.8-50.9-36.8c-28.1,0-50.9,16.5-50.9,36.8c0,4,0.9,7.8,2.5,11.3
					c0-0.2,0-0.4,0-0.6c0-19.4,21.7-35.1,48.5-35.1c26.8,0,48.5,15.7,48.5,35.1c0,0.2,0,0.4,0,0.6
					C1439.7,1245.2,1440.5,1241.4,1440.5,1237.4z"/>
			</g>
			<g>
				<ellipse cx="1552.7" cy="845" rx="48" ry="34.8"/>
				<path class="st1" d="M1600.8,845c0-19.2-21.5-34.8-48-34.8c-26.5,0-48,15.6-48,34.8c0,3.7,0.8,7.3,2.3,10.7c0-0.2,0-0.4,0-0.6
					c0-18.3,20.5-33.1,45.7-33.1c25.3,0,45.7,14.8,45.7,33.1c0,0.2,0,0.4,0,0.6C1600,852.3,1600.8,848.7,1600.8,845z"/>
			</g>
			<g>
				<ellipse cx="1619.5" cy="929.2" rx="48" ry="34.8"/>
				<path class="st1" d="M1667.6,929.2c0-19.2-21.5-34.8-48-34.8c-26.5,0-48,15.6-48,34.8c0,3.7,0.8,7.3,2.3,10.7c0-0.2,0-0.4,0-0.6
					c0-18.3,20.5-33.1,45.7-33.1c25.3,0,45.7,14.8,45.7,33.1c0,0.2,0,0.4,0,0.6C1666.7,936.5,1667.6,932.9,1667.6,929.2z"/>
			</g>
		</g>
		<g>
			<g>
				<g>
					<path class="st6" d="M1568.8,1201.1c-29.6-20.1-29.6-73.1-43.4-62.2c-13.7,10.8-2.2,73.2,27.3,95.5c30.5,23,48,16.5,48,16.5
						s4.8,38.2-17.4,59.7l54-16.3v-81.8C1637.4,1212.5,1598.4,1221.3,1568.8,1201.1z"/>
				</g>
			</g>
			<path class="st9" d="M1596.5,1212.4c-10.3,9.8-19.5,20.8-28.1,32c20.8,10.8,32.4,6.5,32.4,6.5s4.8,38.2-17.4,59.7l54-16.3v-81.8
				C1637.4,1212.5,1618.2,1216.8,1596.5,1212.4z"/>
			<path class="st10" d="M1600.8,1250.9c0,0,4.8,38.2-17.4,59.7l54-16.3v-81.8L1600.8,1250.9z"/>
		</g>
	</g>
</g>
</svg>
